<svg width="1050" height="960" viewBox="0 0 1050 960" fill="none" xmlns="http://www.w3.org/2000/svg">
<path style="mix-blend-mode:screen" d="M525.011 857.748C814.867 857.748 1049.84 665.958 1049.84 429.373C1049.84 192.787 814.867 0.997299 525.011 0.997299C235.154 0.997299 0.178955 192.787 0.178955 429.373C0.178955 665.958 235.154 857.748 525.011 857.748Z" fill="url(#paint0_radial)"/>
<path style="mix-blend-mode:screen" d="M606.732 959.642C763.327 959.642 890.273 856.027 890.273 728.211C890.273 600.395 763.327 496.78 606.732 496.78C450.137 496.78 323.191 600.395 323.191 728.211C323.191 856.027 450.137 959.642 606.732 959.642Z" fill="url(#paint1_radial)"/>
<path style="mix-blend-mode:color-dodge" d="M965.088 240.643C967.949 243.529 969.617 247.157 969.829 250.953L968.862 543.661C968.976 544.635 968.787 545.617 968.315 546.507C967.842 547.396 967.103 548.16 966.174 548.719C965.804 548.893 965.408 549.024 964.998 549.109C963.169 549.318 961.312 548.983 959.733 548.159L495.435 316.341C493.784 315.484 492.321 314.383 491.11 313.089C490.07 311.999 489.174 310.812 488.439 309.55C487.16 307.456 486.458 305.134 486.386 302.767L487.353 10.062C487.328 8.97674 487.576 7.89969 488.078 6.90484C488.515 6.12931 489.191 5.47279 490.031 5.00718C491.064 4.60257 492.203 4.44103 493.332 4.53889C494.461 4.63675 495.54 4.99053 496.46 5.56449L960.761 237.369C962.413 238.233 963.878 239.341 965.088 240.643ZM944.713 505.062L945.499 265.368C945.334 262.646 944.426 259.996 942.849 257.635C941.273 255.273 939.072 253.269 936.428 251.784L520.615 44.1837C515.598 41.6758 511.525 43.6849 511.508 48.6924L510.722 288.386C510.887 291.105 511.792 293.751 513.365 296.11C514.937 298.469 517.132 300.473 519.771 301.959L935.584 509.559C940.601 512.067 944.697 510.05 944.713 505.062Z" fill="url(#paint2_linear)"/>
<g style="mix-blend-mode:overlay">
<g style="mix-blend-mode:overlay">
<g style="mix-blend-mode:screen">
<g style="mix-blend-mode:screen">
<path d="M737.554 642.894L678.86 672.39C625.59 647.244 541.87 647.676 490.044 673.722C488.974 674.26 487.968 674.815 486.937 675.372L427.847 645.87C428.891 645.313 429.922 644.778 430.989 644.24C515.234 601.909 651.666 601.466 737.554 642.894Z" fill="white"/>
</g>
</g>
<path style="mix-blend-mode:overlay" d="M746.606 647.509C816.33 685.261 823.545 741.511 768.048 782.909L707.144 752.501C731.576 728.3 725.122 698.264 687.841 677.041L746.606 647.509Z" fill="url(#paint3_linear)"/>
<g style="mix-blend-mode:overlay">
<path d="M760.44 788.228C754.339 792.215 747.962 795.875 741.344 799.188C658.327 840.906 524.621 841.942 438.549 802.317L497.304 772.779C550.687 796.148 631.703 795.128 682.305 769.7C688.823 766.465 694.926 762.642 700.512 758.295L760.44 788.228Z" fill="#47FFFF"/>
</g>
</g>
<path style="mix-blend-mode:overlay" d="M478.578 680.301C438.478 706.42 441.665 743.835 487.984 768.31L429.291 797.806C350.379 757.019 346.921 693.223 419.204 650.658L478.578 680.301Z" fill="url(#paint4_linear)"/>
</g>
<g style="mix-blend-mode:overlay">
<g style="mix-blend-mode:overlay">
<g style="mix-blend-mode:overlay">
<path d="M760.44 788.228C754.339 792.215 747.962 795.875 741.344 799.188C658.327 840.906 524.62 841.942 438.549 802.317L497.304 772.779C550.687 796.148 631.703 795.128 682.305 769.7C688.823 766.465 694.926 762.642 700.512 758.295L760.44 788.228Z" fill="#47FFFF"/>
</g>
</g>
<path style="mix-blend-mode:overlay" d="M478.578 680.301C438.478 706.42 441.665 743.835 487.984 768.31L429.291 797.806C350.379 757.019 346.921 693.223 419.204 650.658L478.578 680.301Z" fill="url(#paint5_linear)"/>
</g>
<g style="mix-blend-mode:multiply" opacity="0.33">
<g style="mix-blend-mode:multiply" opacity="0.33">
<path d="M764.652 450.751L935.077 535.837L935.167 509.345L764.742 424.259L764.652 450.751Z" fill="#0E216D"/>
</g>
</g>
<g style="mix-blend-mode:color-dodge">
<path style="mix-blend-mode:color-dodge" d="M746.812 356.085C742.623 353.993 739.233 355.687 739.22 359.828L738.576 550.92C738.709 553.189 739.462 555.398 740.773 557.366C742.083 559.334 743.914 561.006 746.116 562.245L901.409 639.773C905.599 641.869 908.989 640.174 909.001 636.009L909.662 444.913C909.524 442.649 908.769 440.446 907.458 438.482C906.147 436.519 904.317 434.852 902.118 433.616L746.812 356.085Z" fill="url(#paint6_linear)"/>
</g>
<g style="mix-blend-mode:overlay">
<g style="mix-blend-mode:overlay">
<path d="M746.812 356.085C742.623 353.993 739.233 355.687 739.22 359.828L738.576 550.92C738.709 553.189 739.462 555.398 740.773 557.366C742.083 559.334 743.914 561.006 746.116 562.245L901.409 639.773C905.599 641.869 908.989 640.174 909.001 636.009L909.662 444.913C909.524 442.649 908.769 440.446 907.458 438.482C906.147 436.519 904.317 434.852 902.118 433.616L746.812 356.085Z" stroke="white" stroke-miterlimit="10"/>
</g>
</g>
<g style="mix-blend-mode:overlay">
<g style="mix-blend-mode:overlay">
<path d="M761.7 381.19C758.626 379.654 756.141 380.911 756.132 383.935L755.648 530.807C755.746 532.471 756.298 534.091 757.26 535.535C758.222 536.979 759.565 538.206 761.181 539.114L882.429 601.377C885.507 602.912 887.991 601.669 888.001 598.613L888.484 451.74C888.383 450.08 887.829 448.463 886.867 447.023C885.906 445.583 884.564 444.359 882.951 443.453L761.7 381.19Z" fill="white"/>
</g>
</g>
<path opacity="0.278" d="M787.953 513.235L787.508 512.63L787.953 513.235Z" fill="#421F51"/>
<path opacity="0.278" d="M783.635 506.878C784.709 508.61 785.844 510.311 787.041 511.981C785.847 510.311 784.711 508.61 783.635 506.878Z" fill="#421F51"/>
<path opacity="0.278" d="M787.489 512.613L787.057 512.017L787.489 512.613Z" fill="#421F51"/>
<path opacity="0.278" d="M790.808 516.902C789.841 515.706 788.874 514.483 787.959 513.243C788.878 514.483 789.828 515.706 790.808 516.902Z" fill="#421F51"/>
<path opacity="0.278" d="M791.292 517.487L790.815 516.91L791.292 517.487Z" fill="#421F51"/>
<path opacity="0.278" d="M793.332 519.842L792.845 519.284L793.332 519.842Z" fill="#421F51"/>
<path opacity="0.278" d="M793.332 519.858C794.015 520.624 794.71 521.38 795.416 522.127C794.705 521.382 794.01 520.626 793.332 519.858Z" fill="#421F51"/>
<path opacity="0.278" d="M808.586 533.538L808.216 533.279L808.586 533.538Z" fill="#421F51"/>
<path opacity="0.278" d="M820.739 540.387C820.616 540.337 820.493 540.281 820.371 540.228C820.493 540.281 820.616 540.337 820.739 540.387Z" fill="#421F51"/>
<path opacity="0.278" d="M824.654 541.914C824.248 541.775 823.838 541.635 823.429 541.474C823.838 541.627 824.248 541.775 824.654 541.914Z" fill="#421F51"/>
<path opacity="0.278" d="M833.122 544.001C832.952 543.979 832.8 543.954 832.613 543.926C832.784 543.954 832.968 543.979 833.122 544.001Z" fill="#421F51"/>
<path d="M806.866 498.68C806.398 501.773 805.358 504.995 803.086 505.925C799.109 507.553 788.585 505.089 782.823 505.563C776.074 494.798 772.355 482.81 771.967 470.569C772.05 445.437 792.619 435.302 817.909 447.928C843.199 460.554 863.636 491.162 863.555 516.294C863.491 535.8 851.097 546.261 833.734 544.079C836.992 544.596 840.337 544.533 843.565 543.892C846.792 543.251 849.835 542.047 852.505 540.354C846.779 534.137 836.261 526.1 832.317 520.519C830.112 516.943 828.817 513.001 828.517 508.957C829.444 508.785 830.284 508.366 830.921 507.759C831.763 506.08 832.431 504.34 832.916 502.559C833.32 503.121 833.858 503.602 834.495 503.969C836.28 504.805 840.618 498.134 838.423 494.988C838.142 494.536 837.733 494.152 837.234 493.874C836.868 493.708 836.45 493.65 836.043 493.709C835.636 493.768 835.262 493.94 834.978 494.199C835.736 490.644 836.177 487.988 836.2 487.849C836.177 487.347 836.2 486.86 836.2 486.35C835.856 480.725 833.979 475.249 830.722 470.371C827.465 465.493 822.92 461.35 817.458 458.281C807.066 453.092 798.62 457.252 798.584 467.571C798.584 468.081 798.616 468.599 798.652 469.104C798.581 469.067 799.035 472.325 799.767 476.627C799.279 475.618 798.503 474.732 797.511 474.053C797.337 473.952 797.135 473.892 796.926 473.878C796.717 473.865 796.508 473.899 796.319 473.977C794.121 474.93 798.4 485.912 800.102 486.796C800.344 486.935 800.62 487.026 800.907 487.062C801.195 487.099 801.489 487.08 801.768 487.007C802.273 489.427 802.926 491.822 803.724 494.183C804.566 495.782 805.62 497.291 806.866 498.68Z" fill="#47FFFF"/>
<g opacity="0.95">
<path opacity="0.95" d="M818.466 539.342C818.057 539.147 817.851 539.044 817.641 538.938L817.016 538.623L816.394 538.3L816.153 538.172L815.769 537.968L815.521 537.832L815.151 537.628L814.893 537.486L814.535 537.283L814.271 537.135L813.916 536.929L813.659 536.778L813.291 536.564L813.046 536.419L812.663 536.188C812.286 535.956 812.134 535.864 811.986 535.77L811.226 535.293L810.623 534.903L810.027 534.51L809.428 534.106L808.828 533.694L808.232 533.279L807.629 532.847L807.027 532.409L806.405 531.944C805.86 531.534 805.47 531.236 805.08 530.932C804.858 530.754 804.681 530.617 804.507 530.475C804.226 530.252 804.078 530.135 803.933 530.015C803.633 529.77 803.498 529.662 803.366 529.55L802.792 529.074L802.222 528.589L801.649 528.095C801.349 527.834 801.204 527.705 801.059 527.574L800.414 527.017C799.825 526.482 799.267 525.964 798.716 525.44L798.178 524.924L797.637 524.395L797.102 523.866C796.844 523.606 796.702 523.464 796.563 523.308L796.016 522.751L795.442 522.152C794.714 521.385 794.018 520.627 793.335 519.858L792.835 519.301L792.339 518.73L791.836 518.142C791.633 517.899 791.482 517.721 791.333 517.54C791.137 517.306 790.979 517.114 790.821 516.921C789.835 515.718 788.883 514.495 787.966 513.254L787.515 512.641L787.064 512.017C785.852 510.323 784.715 508.62 783.641 506.89C783.503 506.669 783.371 506.455 783.242 506.243L782.845 505.588C788.594 505.095 799.128 507.57 803.105 505.942C805.361 505.014 806.418 501.793 806.885 498.697C805.644 497.309 804.594 495.8 803.756 494.202C802.958 491.842 802.305 489.447 801.8 487.027C801.536 487.098 801.257 487.12 800.982 487.09C800.708 487.06 800.444 486.98 800.208 486.854C798.432 485.921 794.153 474.939 796.341 473.986C796.53 473.908 796.74 473.874 796.949 473.887C797.158 473.9 797.359 473.96 797.533 474.061C798.525 474.74 799.301 475.626 799.789 476.636C799.058 472.339 798.626 469.246 798.603 469.081C798.639 468.613 798.603 468.095 798.603 467.585C798.639 457.275 807.085 453.095 817.477 458.294C822.939 461.364 827.484 465.507 830.741 470.385C833.999 475.263 835.875 480.739 836.219 486.364C836.219 486.874 836.19 487.361 836.155 487.832C836.213 487.863 835.748 490.658 834.991 494.213C835.275 493.954 835.649 493.782 836.056 493.723C836.463 493.664 836.881 493.722 837.247 493.887C837.746 494.166 838.155 494.55 838.436 495.002C840.634 498.148 836.293 504.825 834.569 504.017C833.902 503.647 833.338 503.154 832.919 502.573C832.434 504.354 831.766 506.094 830.924 507.773C830.287 508.379 829.447 508.799 828.52 508.971C828.82 513.015 830.116 516.957 832.32 520.533C836.264 526.106 846.782 534.151 852.508 540.368C849.838 542.061 846.795 543.265 843.568 543.906C840.34 544.547 836.995 544.61 833.738 544.093L833.174 544.021L832.603 543.934C832.358 543.898 832.191 543.87 832.027 543.842L831.43 543.737C830.583 543.578 829.79 543.408 828.991 543.21L828.404 543.062L827.821 542.906L827.228 542.742L826.635 542.566L826.03 542.38L825.417 542.184L824.773 541.967C824.235 541.783 823.825 541.636 823.416 541.482L822.81 541.254L822.198 541.011L821.592 540.763L821.344 540.66L820.977 540.504L820.725 540.395C820.603 540.345 820.48 540.29 820.358 540.237L820.1 540.122L819.733 539.958L819.482 539.844L819.098 539.665L818.856 539.554L818.466 539.342Z" fill="#2C66FF"/>
</g>
<path opacity="0.278" d="M820.371 540.228L820.113 540.114L820.371 540.228Z" fill="#421F51"/>
<path style="mix-blend-mode:color-dodge" d="M965.088 240.643C967.949 243.529 969.617 247.157 969.829 250.953L968.862 543.661C968.976 544.635 968.787 545.617 968.315 546.507C967.842 547.396 967.103 548.16 966.174 548.719C965.804 548.893 965.408 549.024 964.998 549.109C963.169 549.318 961.312 548.983 959.733 548.159L495.435 316.341C493.784 315.484 492.321 314.383 491.11 313.089C490.07 311.999 489.174 310.812 488.439 309.55C487.16 307.456 486.458 305.134 486.386 302.767L487.353 10.062C487.328 8.97674 487.576 7.89969 488.078 6.90484C488.515 6.12931 489.191 5.47279 490.031 5.00718C491.064 4.60257 492.203 4.44103 493.332 4.53889C494.461 4.63675 495.54 4.99053 496.46 5.56449L960.761 237.369C962.413 238.233 963.878 239.341 965.088 240.643ZM944.713 505.062L945.499 265.368C945.334 262.646 944.426 259.996 942.849 257.635C941.273 255.273 939.072 253.269 936.428 251.784L520.615 44.1837C515.598 41.6758 511.525 43.6849 511.508 48.6924L510.722 288.386C510.887 291.105 511.792 293.751 513.365 296.11C514.937 298.469 517.132 300.473 519.771 301.959L935.584 509.559C940.601 512.067 944.697 510.05 944.713 505.062Z" fill="url(#paint7_linear)"/>
<path opacity="0.14" d="M930.84 373.187V505.97L524.65 305.013V248.752C524.65 248.752 547.436 237.048 565.662 250.831C583.888 265.6 610.09 315.85 631.722 314.866C653.355 313.883 681.851 282.355 681.851 282.355C681.851 282.355 696.229 265.168 710.685 276.718C725.141 288.269 752.48 335.554 771.847 343.434C791.214 348.358 817.416 309.94 817.416 309.94C817.416 309.94 843.618 288.266 869.82 303.043C890.327 319.79 902.856 349.345 902.856 349.345L930.84 373.187Z" fill="url(#paint8_linear)"/>
<path d="M863.749 298.487C883.012 308.103 892.18 323.892 900.33 337.934C907.187 349.74 912.83 359.471 923.274 364.685C925.291 365.687 927.425 366.501 929.641 367.112C930.496 367.487 931.241 368.024 931.822 368.683C932.402 369.342 932.802 370.106 932.993 370.918C933.315 372.59 932.348 373.608 930.84 373.184C928.212 372.454 925.681 371.484 923.29 370.291C910.165 363.737 902.963 351.343 895.964 339.296C888.272 326.043 880.344 312.375 863.62 304.021C862.257 303.344 860.842 302.7 859.36 302.093C836.638 292.8 823.49 308.101 810.765 322.892C801.281 333.943 792.303 344.376 779.559 344.967C774.863 345.156 770.208 344.14 766.179 342.047C755.11 336.521 746.455 324.057 738.005 311.893C729.205 299.236 720.121 286.154 707.904 279.669C692.872 272.162 684.284 283.013 674.336 295.553C665.716 306.42 656.806 317.684 642.569 318.539C635.536 318.915 628.538 317.43 622.506 314.281C607.638 306.858 595.927 291.102 585.225 276.724C580.985 271.031 576.625 265.159 572.197 259.94C568.896 255.912 564.657 252.526 559.752 250C554.894 247.711 549.496 246.407 543.969 246.188C538.442 245.969 532.93 246.84 527.85 248.735C527.533 248.843 527.19 248.88 526.853 248.844C526.515 248.808 526.193 248.7 525.916 248.529C525.046 248.058 524.334 247.397 523.854 246.612C522.813 244.94 522.868 243.215 524.018 242.73C529.698 240.566 535.885 239.583 542.084 239.861C548.282 240.139 554.319 241.669 559.71 244.33C565.888 247.534 571.223 251.82 575.371 256.914C580.034 262.417 584.513 268.431 588.854 274.26C599.488 288.556 609.71 302.296 622.458 308.658C627.683 311.37 633.743 312.635 639.823 312.28C652.671 311.523 661.191 300.764 669.441 290.37C679.804 277.273 689.61 264.925 707.266 273.739C722.412 281.77 732.749 296.62 741.853 309.728C750.231 321.786 757.321 331.996 766.134 336.398C769.367 338.067 773.102 338.866 776.862 338.694C788.256 338.184 796.841 328.197 805.934 317.622C819.372 301.976 833.267 285.805 858.857 296.263C860.561 296.964 862.191 297.705 863.749 298.487Z" fill="url(#paint9_linear)"/>
<path d="M934.762 370.094C934.549 367.201 933.358 364.425 931.336 362.113C930.372 360.938 929.206 359.898 927.879 359.028C926.65 358.176 925.176 357.628 923.615 357.443C922.712 357.357 921.799 357.514 921.002 357.891C920.635 358.07 920.271 358.259 919.906 358.449C920.714 358.12 921.601 357.966 922.493 358.002C923.384 358.037 924.251 358.261 925.02 358.652C926.685 359.395 928.156 360.426 929.342 361.681C931.862 364.154 933.379 367.272 933.663 370.559C933.811 371.479 933.671 372.416 933.259 373.273C932.847 374.13 932.178 374.877 931.32 375.436C932.281 375.056 933.123 374.482 933.776 373.764C934.528 372.655 934.872 371.375 934.762 370.094Z" fill="#7F5EFF"/>
<path d="M925.639 358.928C921.189 356.699 917.583 358.49 917.554 362.913C917.7 365.323 918.504 367.67 919.9 369.761C921.295 371.851 923.243 373.627 925.584 374.942C930.037 377.172 933.656 375.383 933.672 370.96C933.524 368.549 932.719 366.203 931.323 364.112C929.927 362.021 927.979 360.244 925.639 358.928Z" fill="#47FFFF"/>
<path d="M708.629 279.956C708.415 277.063 707.223 274.288 705.201 271.975C704.239 270.799 703.073 269.759 701.743 268.891C700.514 268.038 699.041 267.49 697.48 267.305C696.576 267.22 695.664 267.376 694.866 267.754C694.499 267.932 694.135 268.119 693.771 268.311C694.578 267.982 695.467 267.828 696.359 267.864C697.25 267.899 698.119 268.123 698.888 268.514C700.551 269.26 702.021 270.291 703.209 271.544C705.728 274.019 707.244 277.137 707.527 280.424C707.675 281.343 707.536 282.28 707.125 283.137C706.714 283.994 706.045 284.74 705.188 285.298C706.149 284.919 706.99 284.346 707.64 283.626C708.393 282.518 708.738 281.238 708.629 279.956Z" fill="#7F5EFF"/>
<path d="M699.503 268.788C695.053 266.558 691.447 268.35 691.418 272.772C691.567 275.183 692.372 277.529 693.768 279.619C695.164 281.71 697.112 283.486 699.452 284.802C703.902 287.031 707.508 285.242 707.537 280.817C707.39 278.406 706.585 276.06 705.189 273.969C703.792 271.878 701.844 270.103 699.503 268.788Z" fill="#47FFFF"/>
<path d="M534.891 248.925C534.679 246.031 533.488 243.256 531.465 240.944C530.503 239.768 529.336 238.728 528.007 237.859C526.779 237.007 525.305 236.459 523.744 236.274C522.84 236.188 521.928 236.345 521.131 236.722C520.763 236.901 520.399 237.09 520.035 237.28C520.842 236.951 521.73 236.798 522.621 236.833C523.513 236.869 524.38 237.092 525.149 237.483C526.813 238.228 528.283 239.259 529.47 240.512C531.991 242.986 533.507 246.105 533.789 249.393C533.938 250.312 533.799 251.249 533.388 252.106C532.976 252.963 532.307 253.709 531.449 254.267C532.41 253.889 533.252 253.315 533.901 252.595C534.658 251.488 535.003 250.207 534.891 248.925Z" fill="#7F5EFF"/>
<path d="M525.774 237.759C521.321 235.53 517.702 237.321 517.689 241.744C517.838 244.154 518.642 246.5 520.038 248.59C521.433 250.681 523.38 252.457 525.719 253.773C530.173 256.003 533.792 254.214 533.805 249.791C533.659 247.38 532.855 245.033 531.46 242.942C530.064 240.85 528.116 239.074 525.774 237.759Z" fill="#3BC9FF"/>
<path d="M587.739 204.064C588.756 205.405 590.103 206.536 591.683 207.377C591.973 207.522 592.273 207.65 592.582 207.761C590.928 207.234 589.309 206.629 587.732 205.947L587.739 204.064Z" fill="#747878"/>
<path d="M587.12 131.944L587.317 132.067C586.537 131.618 585.757 131.172 584.955 130.771L585.486 131.05C585.979 131.298 586.495 131.574 586.991 131.858L587.12 131.944Z" fill="#6C7070"/>
<path d="M585.709 192.24C586.07 192.405 586.434 192.569 586.791 192.722L586.859 192.756C586.479 192.591 586.095 192.419 585.709 192.24Z" fill="#747878"/>
<path d="M590.294 194.049C589.481 193.816 588.606 193.799 587.781 193.999V193.143C588.628 193.483 589.466 193.787 590.294 194.049Z" fill="#747878"/>
<path d="M590.806 134.26C591.382 134.661 591.955 135.075 592.524 135.503C590.876 134.261 589.136 133.113 587.316 132.067C587.536 132.192 587.764 132.301 587.98 132.429V131.593C588.764 132.598 589.716 133.497 590.806 134.26Z" fill="#747878"/>
<g style="mix-blend-mode:screen" opacity="0.22">
<g style="mix-blend-mode:screen" opacity="0.22">
<path d="M584.993 118.006C586.022 118.518 587.032 119.059 588.022 119.628V121.508C587.175 121.811 586.467 122.349 586.012 123.038C585.557 123.727 585.38 124.527 585.509 125.312C585.617 127.567 586.479 129.745 587.99 131.585V132.421C587.001 131.836 585.989 131.278 584.961 130.749C568.021 122.292 554.229 129.077 554.174 145.941C554.119 162.806 567.821 183.298 584.761 191.755C585.084 191.914 585.406 192.067 585.728 192.215C586.115 192.401 586.498 192.574 586.879 192.733C587.201 192.867 587.494 192.995 587.8 193.121V193.976C586.958 194.277 586.256 194.81 585.802 195.493C585.347 196.175 585.167 196.969 585.29 197.749C585.389 200.011 586.25 202.198 587.768 204.041V205.925C587.481 205.802 587.194 205.674 586.904 205.546C586.192 205.228 585.47 204.886 584.739 204.523C560.696 192.519 541.268 163.416 541.345 139.526C541.423 115.637 560.951 106.001 584.993 118.006Z" fill="white"/>
</g>
</g>
<path d="M591.97 122.138C592.278 122.294 592.576 122.464 592.862 122.648C592.975 122.718 593.085 122.79 593.185 122.868C610.605 135.461 622.583 152.782 627.166 172.012C627.211 172.213 627.246 172.38 627.278 172.545C627.33 172.795 627.362 172.946 627.391 173.102L627.497 173.659C627.546 173.921 627.575 174.077 627.6 174.217L627.691 174.735C627.736 175.014 627.762 175.167 627.784 175.317C627.823 175.565 627.849 175.735 627.874 175.911C627.929 176.301 627.978 176.663 628.023 177.025C628.055 177.282 628.071 177.427 628.087 177.566C628.116 177.845 628.132 177.967 628.145 178.101C628.174 178.38 628.184 178.511 628.197 178.639C628.223 178.918 628.232 179.035 628.242 179.149C628.264 179.469 628.274 179.578 628.281 179.687C628.303 179.996 628.309 180.102 628.313 180.205C628.332 180.528 628.339 180.631 628.342 180.737V180.957V181.236V181.478V181.791C628.342 182.128 628.342 182.256 628.342 182.387C628.342 182.682 628.342 182.858 628.342 183.033C628.342 183.209 628.342 183.382 628.342 183.554C628.342 183.8 628.342 183.928 628.342 184.056C628.342 184.357 628.342 184.457 628.326 184.558V184.792V185.07V185.279L628.306 185.575C628.287 185.878 628.28 185.976 628.271 186.074C628.248 186.352 628.239 186.466 628.229 186.567C628.203 186.862 628.194 186.968 628.181 187.071C628.152 187.35 628.139 187.456 628.126 187.573C628.097 187.829 628.081 187.949 628.065 188.069C628.032 188.311 628.016 188.437 627.997 188.562C627.936 188.977 627.884 189.289 627.829 189.599C627.8 189.766 627.775 189.911 627.746 190.058C627.707 190.259 627.681 190.382 627.655 190.504C627.61 190.733 627.584 190.85 627.559 190.967C627.513 191.17 627.485 191.287 627.459 191.404C627.404 191.624 627.378 191.739 627.349 191.853L627.236 192.288C627.175 192.508 627.143 192.63 627.108 192.75C627.053 192.94 627.014 193.076 626.972 193.213C622.735 207.193 609.465 213.017 592.901 207.884C592.792 207.851 592.682 207.814 592.579 207.773C592.271 207.661 591.972 207.532 591.683 207.388C590.104 206.547 588.757 205.415 587.739 204.075C586.221 202.231 585.36 200.044 585.261 197.783C585.138 197.002 585.318 196.209 585.772 195.526C586.226 194.844 586.929 194.31 587.771 194.01C588.597 193.81 589.473 193.827 590.288 194.06C590.391 194.085 590.497 194.116 590.61 194.146C594.776 195.596 599.381 195.811 603.703 194.757C603.874 194.709 604.025 194.662 604.199 194.609C604.373 194.556 604.547 194.497 604.702 194.444L605.198 194.263C605.372 194.196 605.52 194.138 605.665 194.077C605.81 194.015 605.988 193.943 606.113 193.879C606.313 193.787 606.435 193.723 606.571 193.659C606.784 193.553 606.893 193.489 607.025 193.425C607.244 193.302 607.347 193.238 607.473 193.171C607.699 193.037 607.795 192.968 607.921 192.892C608.118 192.764 608.217 192.7 608.314 192.633C608.533 192.483 608.636 192.416 608.717 192.354L609.123 192.048C609.332 191.881 609.445 191.8 609.523 191.722C609.732 191.544 609.822 191.463 609.916 191.379C610.119 191.192 610.209 191.101 610.296 191.02C610.483 190.836 610.56 190.741 610.638 190.677L610.757 190.552L610.973 190.317L611.092 190.184C611.169 190.097 611.243 190.011 611.317 189.922C611.491 189.716 611.569 189.615 611.64 189.515C611.811 189.292 611.885 189.192 611.962 189.089L612.284 188.646C612.439 188.411 612.513 188.3 612.584 188.183C612.713 187.98 612.777 187.868 612.842 187.757C612.974 187.534 613.038 187.417 613.103 187.297C613.228 187.066 613.293 186.937 613.361 186.809C613.48 186.57 613.544 186.436 613.605 186.299C613.718 186.06 613.779 185.92 613.837 185.784C613.944 185.533 614.002 185.391 614.057 185.246C614.147 185.012 614.205 184.859 614.26 184.703C614.334 184.491 614.388 184.329 614.44 184.168C614.508 183.959 614.559 183.791 614.608 183.61C614.678 183.371 614.724 183.209 614.766 183.053C614.833 182.774 614.875 182.627 614.914 182.462C614.975 182.183 615.014 182.016 615.049 181.846C615.101 181.59 615.133 181.409 615.168 181.225C615.207 180.991 615.239 180.801 615.268 180.609C615.297 180.417 615.323 180.205 615.349 180.013C615.381 179.734 615.404 179.553 615.42 179.363C615.449 179.085 615.465 178.898 615.478 178.703C615.5 178.424 615.51 178.224 615.52 178.029C615.536 177.75 615.542 177.533 615.549 177.329C615.549 177.051 615.549 176.839 615.549 176.621C615.549 176.404 615.549 176.181 615.549 175.961C615.549 175.682 615.549 175.485 615.529 175.276C615.529 174.975 615.504 174.768 615.494 174.562C615.475 174.256 615.458 174.047 615.442 173.84C615.416 173.542 615.397 173.33 615.375 173.121C615.342 172.815 615.317 172.595 615.291 172.375C615.265 172.155 615.23 171.909 615.197 171.678C615.165 171.447 615.126 171.199 615.088 170.973C615.043 170.694 615.007 170.483 614.969 170.268C614.911 169.953 614.869 169.739 614.827 169.524C614.766 169.22 614.717 169 614.669 168.78C614.501 168.011 614.321 167.292 614.124 166.573C614.057 166.331 613.989 166.097 613.921 165.857C613.77 165.344 613.618 164.859 613.46 164.377C609.988 154.095 603.531 144.752 594.702 137.239C594.496 137.066 594.322 136.924 594.145 136.782C593.823 136.528 593.687 136.411 593.539 136.294L593.288 136.099C593.175 136.01 593.065 135.923 592.966 135.84L592.589 135.561C591.963 135.093 591.39 134.678 590.813 134.277C589.723 133.512 588.771 132.61 587.99 131.601C586.479 129.762 585.617 127.583 585.509 125.329C585.38 124.544 585.557 123.743 586.012 123.055C586.467 122.366 587.174 121.828 588.022 121.525C588.694 121.389 589.391 121.373 590.069 121.479C590.748 121.584 591.395 121.808 591.97 122.138Z" fill="#1CE5FF"/>
<path d="M592.862 122.648C592.577 122.464 592.279 122.295 591.97 122.141C591.396 121.807 590.749 121.578 590.069 121.469C589.389 121.36 588.69 121.374 588.016 121.508V119.628C589.672 120.558 591.283 121.57 592.862 122.648Z" fill="#747878"/>
<g style="mix-blend-mode:screen" opacity="0.69">
<g style="mix-blend-mode:screen" opacity="0.69">
<path d="M677.967 170.605V174.15C677.967 174.626 677.823 175.094 677.547 175.506C677.272 175.918 676.876 176.261 676.4 176.499C675.923 176.738 675.382 176.863 674.832 176.864C674.281 176.864 673.74 176.739 673.263 176.502L653.899 166.854C653.421 166.617 653.024 166.274 652.748 165.861C652.472 165.448 652.326 164.98 652.327 164.503V160.947C652.326 160.471 652.47 160.002 652.745 159.589C653.02 159.176 653.416 158.833 653.893 158.595C654.37 158.357 654.911 158.231 655.462 158.231C656.013 158.231 656.554 158.357 657.031 158.595L676.395 168.239C676.875 168.479 677.274 168.823 677.55 169.239C677.826 169.655 677.97 170.126 677.967 170.605Z" fill="#1CE5FF"/>
</g>
<g style="mix-blend-mode:screen" opacity="0.69">
<path d="M739.288 218.585V222.135C739.289 222.611 739.144 223.078 738.87 223.491C738.596 223.903 738.201 224.246 737.724 224.485C737.248 224.723 736.708 224.849 736.158 224.85C735.607 224.851 735.066 224.727 734.589 224.489L653.912 184.496C653.432 184.259 653.034 183.917 652.757 183.504C652.479 183.091 652.333 182.622 652.333 182.144V178.592C652.333 178.116 652.478 177.649 652.752 177.237C653.027 176.825 653.422 176.482 653.898 176.244C654.374 176.006 654.913 175.879 655.463 175.878C656.013 175.877 656.554 176.001 657.031 176.237L737.709 216.23C738.188 216.467 738.587 216.81 738.865 217.223C739.142 217.637 739.288 218.107 739.288 218.585Z" fill="#1CE5FF"/>
</g>
<g style="mix-blend-mode:screen" opacity="0.53">
<g style="mix-blend-mode:screen" opacity="0.53">
<path d="M706.035 237.38V240.922C706.035 241.397 705.89 241.864 705.616 242.276C705.341 242.689 704.946 243.031 704.47 243.269C703.995 243.508 703.455 243.634 702.905 243.635C702.355 243.636 701.814 243.513 701.337 243.276L653.922 219.772C653.442 219.534 653.043 219.192 652.766 218.778C652.488 218.365 652.342 217.895 652.343 217.417V213.892C652.343 213.416 652.487 212.949 652.762 212.536C653.037 212.124 653.432 211.781 653.908 211.543C654.384 211.304 654.925 211.178 655.475 211.176C656.025 211.175 656.566 211.298 657.044 211.534L704.456 235.042C704.933 235.278 705.331 235.618 705.608 236.028C705.885 236.439 706.032 236.905 706.035 237.38Z" fill="#1CE5FF"/>
</g>
</g>
<g style="mix-blend-mode:screen" opacity="0.69">
<path d="M726.781 230.026V233.576C726.781 234.052 726.637 234.52 726.362 234.932C726.087 235.345 725.692 235.687 725.216 235.926C724.739 236.164 724.199 236.291 723.648 236.291C723.098 236.292 722.557 236.168 722.08 235.931L653.912 202.138C653.433 201.901 653.035 201.558 652.758 201.145C652.482 200.732 652.336 200.264 652.336 199.786V196.233C652.337 195.758 652.482 195.291 652.757 194.879C653.032 194.467 653.427 194.125 653.903 193.886C654.379 193.648 654.919 193.522 655.469 193.52C656.019 193.519 656.56 193.643 657.037 193.879L725.205 227.672C725.684 227.91 726.082 228.253 726.359 228.666C726.635 229.079 726.781 229.549 726.781 230.026Z" fill="#1CE5FF"/>
</g>
</g>
<path style="mix-blend-mode:color-dodge" d="M485.88 324.664C494.505 324.664 501.496 255.056 501.496 169.19C501.496 83.3235 494.505 13.7153 485.88 13.7153C477.256 13.7153 470.264 83.3235 470.264 169.19C470.264 255.056 477.256 324.664 485.88 324.664Z" fill="url(#paint10_radial)"/>
<path style="mix-blend-mode:color-dodge" d="M832.265 157.497C918.259 200.43 984.475 240.47 980.176 246.93C975.877 253.389 902.656 223.818 816.662 180.888C730.668 137.958 664.449 97.9145 668.751 91.4552C673.053 84.9959 746.267 114.564 832.265 157.497Z" fill="url(#paint11_radial)"/>
<path style="mix-blend-mode:color-dodge" d="M732.151 126.532C743.593 113.045 740.225 94.091 724.629 84.1965C709.032 74.302 687.113 77.2143 675.671 90.7013C664.228 104.188 667.596 123.143 683.193 133.037C698.79 142.932 720.709 140.019 732.151 126.532Z" fill="url(#paint12_radial)"/>
<path style="mix-blend-mode:color-dodge" d="M968.06 589.679C976.684 589.679 983.676 520.071 983.676 434.204C983.676 348.338 976.684 278.73 968.06 278.73C959.435 278.73 952.444 348.338 952.444 434.204C952.444 520.071 959.435 589.679 968.06 589.679Z" fill="url(#paint13_radial)"/>
<g style="mix-blend-mode:multiply" opacity="0.32">
<path d="M586.169 769.987C638.391 769.987 680.726 749.257 680.726 723.685C680.726 698.114 638.391 677.384 586.169 677.384C533.947 677.384 491.613 698.114 491.613 723.685C491.613 749.257 533.947 769.987 586.169 769.987Z" fill="#94A3C0"/>
</g>
<path d="M548.889 715.657C545.798 719.454 544.422 724.098 545.022 728.713C546.53 733.659 556.993 735.793 561.395 734.124C565.797 732.455 570.273 725.304 573.802 721.094C577.62 716.538 585.783 709.204 585.725 703.539C585.667 697.873 571.81 704.578 566.068 707.509C560.325 710.441 550.059 716.148 550.059 716.148L548.889 715.657Z" fill="#113C7A"/>
<path d="M549.891 703.656C549.891 703.656 547.548 718.954 547.809 720.977C548.07 723 560.815 725.929 564.199 719.402C565.24 713.105 566.541 702.981 566.541 702.981L549.891 703.656Z" fill="white"/>
<path d="M540.746 501.447C545.086 525.627 553.826 575.91 554.702 593.327C555.872 616.586 547.033 708.095 547.033 708.095C547.033 708.095 559.417 717.198 568.736 707.599C568.736 707.599 586.276 614.563 589.785 584.223C592.089 564.31 591.367 525.657 590.6 501.461L540.746 501.447Z" fill="#254DA1"/>
<path d="M591.245 556.421C591.522 539.768 591.171 520.979 590.745 506.201C586.311 505.025 580.021 503.348 573.041 501.447H540.746C541.809 507.377 543.14 514.879 544.552 523.08C553.845 526.471 578.974 537.088 591.245 556.421Z" fill="#254388"/>
<path d="M603.229 728.91C600.138 732.707 598.763 737.351 599.362 741.965C600.87 746.912 611.334 749.049 615.735 747.377C620.137 745.705 625.835 739.09 629.17 734.765C633.156 729.593 640.126 722.459 640.052 716.777C639.978 711.096 626.138 717.817 620.395 720.751C614.653 723.685 604.386 729.39 604.386 729.39L603.229 728.91Z" fill="#113C7A"/>
<path d="M604.231 716.909C604.231 716.909 601.889 732.207 602.15 734.233C602.411 736.259 615.156 739.182 618.539 732.656C619.58 726.358 620.879 716.234 620.879 716.234L604.231 716.909Z" fill="white"/>
<path d="M592.669 501.406C592.669 501.406 607.873 583.331 609.043 606.579C610.212 629.828 601.373 721.347 601.373 721.347C601.373 721.347 613.757 730.451 623.076 720.854C623.076 720.854 640.616 627.816 644.126 597.476C647.635 567.135 644.126 493.316 644.126 493.316L592.669 501.406Z" fill="#254DA1"/>
<path d="M575.307 308.187C575.307 308.187 589.55 299.351 604.412 305.509C615.871 310.865 614.012 326.662 614.321 334.696C614.63 342.729 612.465 355.316 594.815 353.438C577.166 351.56 572.519 345.672 570.354 337.909C568.188 330.145 562.604 312.737 575.307 308.187Z" fill="#F4A89A"/>
<path d="M596.672 350.76C596.583 355.969 597.102 361.172 598.222 366.29C598.544 369.503 573.447 369.503 566.964 360.667C566.642 357.989 572.535 341.389 572.535 341.389L596.672 350.76Z" fill="#F4A89A"/>
<path d="M569.113 355.581C569.113 355.581 554.87 357.186 548.058 367.363C541.245 377.539 538.767 412.882 540.627 442.879C542.486 472.877 535.052 513.031 538.149 519.46C541.864 525.886 596.362 538.202 627.327 530.169C649.001 523.743 647.145 518.387 647.145 518.387C647.145 518.387 642.189 445.557 639.089 425.742C635.989 405.926 632.898 385.579 622.371 376.472C607.838 364.53 589.076 357.171 569.113 355.581Z" fill="#113C7A"/>
<path d="M563.287 358.794C564.56 355.928 566.28 353.227 568.398 350.763C571.185 349.557 592.086 353.171 599.978 359.198C603.393 361.454 606.372 364.165 608.804 367.229C608.804 367.229 600.906 366.025 593.939 364.819C586.972 363.612 570.254 362.417 563.287 358.794Z" fill="#254DA1"/>
<path d="M642.878 462.31C641.589 447.143 640.22 432.937 639.092 425.733C638.823 424.015 638.554 422.295 638.283 420.573L608.807 405.388C608.807 405.388 606.284 420.656 642.878 462.31Z" fill="#112869"/>
<path d="M569.79 339.921C569.79 339.921 560.503 319.436 564.218 312.612C565.546 311.434 566.644 310.078 567.47 308.597C567.7 306.379 568.591 304.251 570.056 302.421C571.521 300.59 573.51 299.12 575.829 298.153C584.188 294.137 600.909 296.949 604.161 295.742C606.706 295.042 609.434 295.013 611.999 295.658C614.563 296.303 616.848 297.593 618.562 299.365C622.751 303.781 622.277 316.232 611.595 319.044C606.948 320.651 602.768 324.667 602.768 326.676C602.768 328.685 605.092 331.761 605.092 333.771C605.092 335.378 603.851 335.512 603.851 335.512C603.851 335.512 601.686 330.825 600.445 330.558C599.204 330.29 596.73 332.032 597.658 335.512C598.586 338.993 600.909 339.795 600.909 340.865C600.909 341.935 598.898 342.473 597.97 342.741C597.042 343.008 595.183 346.221 591.777 347.561C588.37 348.902 572.887 346.087 571.494 345.017C571.305 343.955 571.253 342.877 571.34 341.804L569.79 339.921Z" fill="url(#paint14_linear)"/>
<path d="M647.97 482.081L647.116 483.312C645.898 483.58 644.778 484.108 643.858 484.848C642.938 485.588 642.248 486.516 641.851 487.546C641.454 488.577 641.363 489.678 641.587 490.747C641.81 491.816 642.341 492.819 643.13 493.664C645.692 497.114 644.838 503.27 646.262 504.253C647.686 505.237 648.54 504.744 649.111 500.804C649.681 496.864 647.97 494.395 649.394 492.43C650.343 491.141 651.39 489.908 652.526 488.738L647.97 482.081Z" fill="#F4A89A"/>
<path d="M611.801 370.024C642.961 386.182 668.379 409.442 685.273 437.259C699.799 470.508 652.806 491.934 652.806 491.934C652.806 491.934 640.845 487.501 647.679 479.372C655.141 471.111 660.393 461.523 663.057 451.297C666.476 435.782 615.21 421.004 605.813 409.922C596.417 398.84 597.274 370.776 611.801 370.024Z" fill="#113C7A"/>
<g style="mix-blend-mode:color-dodge">
<path style="mix-blend-mode:color-dodge" d="M400.898 402.73C400.837 404.972 400.817 407.239 400.836 409.529L349.67 383.985L349.693 377.166L400.898 402.73Z" fill="url(#paint15_linear)"/>
<path style="mix-blend-mode:color-dodge" d="M472.642 438.549L472.62 445.367L407.02 412.617C407.001 410.324 407.021 408.058 407.081 405.818L472.642 438.549Z" fill="url(#paint16_linear)"/>
<path style="mix-blend-mode:color-dodge" d="M441.52 484.558L441.497 491.38L393.886 467.607L393.905 462.012C393.905 461.605 393.882 461.176 393.857 460.761L441.52 484.558Z" fill="url(#paint17_linear)"/>
<g style="mix-blend-mode:color-dodge">
<path style="mix-blend-mode:color-dodge" d="M387.776 457.718C387.747 458.099 387.721 458.495 387.721 458.916L387.702 464.511L349.467 445.423L349.49 438.604L387.776 457.718Z" fill="url(#paint18_linear)"/>
<path style="mix-blend-mode:color-dodge" d="M403.559 445.086L403.537 451.919L349.535 424.959L349.558 418.126L403.559 445.086Z" fill="url(#paint19_linear)"/>
<path style="mix-blend-mode:color-dodge" d="M434.237 439.883L434.215 446.716L370.835 415.083L370.858 408.25L434.237 439.883Z" fill="url(#paint20_linear)"/>
</g>
<path style="mix-blend-mode:color-dodge" d="M411.148 489.922V496.73L349.409 465.907L349.432 459.086L411.148 489.922Z" fill="url(#paint21_linear)"/>
<path style="mix-blend-mode:color-dodge" d="M466.629 476.574L466.607 483.407L409.721 455.006L409.743 448.174L436.441 461.502C436.67 461.752 436.948 461.965 437.263 462.132C437.509 462.264 437.795 462.331 438.085 462.324L466.629 476.574Z" fill="url(#paint22_linear)"/>
<path style="mix-blend-mode:color-dodge" d="M489.586 467.515L489.564 474.348L440.399 449.801L440.421 442.968L489.586 467.515Z" fill="url(#paint23_linear)"/>
<path style="mix-blend-mode:color-dodge" d="M488.207 507.876L488.184 514.698L447.681 494.475L447.704 487.654L488.207 507.876Z" fill="url(#paint24_linear)"/>
<path style="mix-blend-mode:color-dodge" d="M576.215 490.259L576.193 497.081L478.801 448.458L478.823 441.636L576.215 490.259Z" fill="url(#paint25_linear)"/>
<path style="mix-blend-mode:color-dodge" d="M548.628 496.992L548.605 503.824L495.757 477.435L495.779 470.603L548.628 496.992Z" fill="url(#paint26_linear)"/>
<path style="mix-blend-mode:color-dodge" d="M576.138 510.732V517.565L554.802 506.912L554.825 500.079L576.138 510.732Z" fill="url(#paint27_linear)"/>
<path style="mix-blend-mode:color-dodge" d="M364.674 405.152L364.651 411.984L349.603 404.461L349.625 397.628L364.674 405.152Z" fill="url(#paint28_linear)"/>
<path style="mix-blend-mode:color-dodge" d="M537.44 511.925L537.417 518.758L472.794 486.495L472.816 479.662L537.44 511.925Z" fill="url(#paint29_linear)"/>
<path style="mix-blend-mode:color-dodge" d="M532.561 530.01C532.468 530.629 532.419 531.253 532.413 531.877L532.396 536.762L494.372 517.774L494.394 510.955L532.561 530.01Z" fill="url(#paint30_linear)"/>
<path style="mix-blend-mode:color-dodge" d="M576.015 551.706L575.993 558.525L538.58 539.855L538.596 534.97C538.6 534.302 538.559 533.634 538.474 532.969L576.015 551.706Z" fill="url(#paint31_linear)"/>
<path style="mix-blend-mode:color-dodge" d="M463.097 515.851L463.075 522.673L417.316 499.823L417.339 493.001L463.097 515.851Z" fill="url(#paint32_linear)"/>
<path style="mix-blend-mode:color-dodge" d="M519.062 543.789L519.039 550.611L469.259 525.758L469.281 518.936L519.062 543.789Z" fill="url(#paint33_linear)"/>
</g>
<path style="mix-blend-mode:color-dodge" d="M584.839 610.233L584.732 642.317L378.495 539.348L378.602 507.263L584.839 610.233Z" fill="url(#paint34_linear)"/>
<g style="mix-blend-mode:overlay">
<path d="M584.839 610.233L584.732 642.317L378.495 539.348L378.602 507.263L584.839 610.233Z" stroke="white" stroke-miterlimit="10"/>
</g>
<path style="mix-blend-mode:color-dodge" d="M1017.38 324.015L1017.28 356.099L811.039 253.13L811.145 221.045L1017.38 324.015Z" fill="url(#paint35_linear)"/>
<g style="mix-blend-mode:overlay">
<path d="M1017.38 324.015L1017.28 356.099L811.039 253.13L811.145 221.045L1017.38 324.015Z" stroke="white" stroke-miterlimit="10"/>
</g>
<path style="mix-blend-mode:color-dodge" d="M1000.89 371.874L1000.83 390.391L881.804 330.965L881.865 312.448L1000.89 371.874Z" fill="url(#paint36_linear)"/>
<g style="mix-blend-mode:overlay">
<path d="M1000.89 371.874L1000.83 390.391L881.804 330.965L881.865 312.448L1000.89 371.874Z" stroke="white" stroke-miterlimit="10"/>
</g>
<path style="mix-blend-mode:color-dodge" d="M544.693 279.853L544.635 298.008L427.94 239.746L427.998 221.591L544.693 279.853Z" fill="url(#paint37_linear)"/>
<g style="mix-blend-mode:overlay">
<path d="M544.693 279.853L544.635 298.008L427.94 239.746L427.998 221.591L544.693 279.853Z" stroke="white" stroke-miterlimit="10"/>
</g>
<g style="mix-blend-mode:color-dodge">
<path style="mix-blend-mode:color-dodge" d="M767.262 570.111C867.767 620.289 868.299 701.947 768.448 752.128C668.597 802.309 505.544 802.317 405.038 752.128C304.533 701.939 303.979 620.281 403.853 570.092C503.726 519.903 666.734 519.922 767.262 570.111ZM407.313 750.994C506.565 800.55 667.562 800.55 766.176 750.994C864.79 701.437 864.264 620.799 765.006 571.246C665.748 521.692 504.738 521.681 406.124 571.246C307.511 620.811 308.036 701.44 407.313 751.005" fill="url(#paint38_linear)"/>
</g>
<g style="mix-blend-mode:color-dodge">
<path style="mix-blend-mode:color-dodge" d="M767.262 635.223C867.767 685.401 868.299 767.061 768.448 817.239C668.597 867.417 505.544 867.431 405.038 817.253C304.533 767.075 303.979 685.403 403.853 635.214C503.726 585.025 666.734 585.039 767.262 635.223ZM407.313 816.108C506.565 865.662 667.562 865.662 766.176 816.108C864.79 766.554 864.264 685.916 765.006 636.374C665.748 586.831 504.738 586.809 406.124 636.374C307.511 685.939 308.036 766.568 407.313 816.133" fill="url(#paint39_linear)"/>
</g>
<g style="mix-blend-mode:color-dodge">
<path style="mix-blend-mode:color-dodge" d="M758.207 501.971C853.688 549.641 854.191 627.217 759.331 674.887C664.472 722.557 509.575 722.568 414.093 674.887C318.612 627.206 318.087 549.633 412.969 501.952C507.851 454.271 662.706 454.293 758.207 501.971ZM416.256 673.811C510.551 720.888 663.492 720.888 757.172 673.811C850.852 626.735 850.356 550.129 756.06 503.052C661.765 455.976 508.808 455.959 415.125 503.052C321.441 550.146 321.941 626.735 416.256 673.822" fill="url(#paint40_linear)"/>
</g>
<g style="mix-blend-mode:color-dodge">
<path style="mix-blend-mode:color-dodge" d="M758.207 501.971C853.688 549.641 854.191 627.217 759.331 674.887C664.472 722.557 509.575 722.568 414.093 674.887C318.612 627.206 318.087 549.633 412.969 501.952C507.851 454.271 662.706 454.293 758.207 501.971ZM416.256 673.811C510.551 720.888 663.492 720.888 757.172 673.811C850.852 626.735 850.356 550.129 756.06 503.052C661.765 455.976 508.808 455.959 415.125 503.052C321.441 550.146 321.941 626.735 416.256 673.822" fill="url(#paint41_linear)"/>
</g>
<g style="mix-blend-mode:color-dodge">
<path style="mix-blend-mode:color-dodge" d="M737.499 423.028C821.489 464.96 821.927 533.2 738.488 575.136C655.049 617.071 518.788 617.076 434.798 575.136C350.808 533.195 350.347 464.954 433.808 423.014C517.27 381.073 653.477 381.087 737.499 423.028ZM436.702 574.197C519.648 615.608 654.182 615.608 736.59 574.197C818.998 532.785 818.56 465.4 735.624 424C652.687 382.6 518.127 382.578 435.719 424C353.311 465.423 353.75 532.799 436.715 574.219" fill="url(#paint42_linear)"/>
</g>
<path style="mix-blend-mode:color-dodge" d="M357.017 554.596C361.047 554.596 364.313 551.771 364.313 548.287C364.313 544.803 361.047 541.978 357.017 541.978C352.988 541.978 349.722 544.803 349.722 548.287C349.722 551.771 352.988 554.596 357.017 554.596Z" fill="url(#paint43_linear)"/>
<path style="mix-blend-mode:color-dodge" d="M605.111 710.327C605.108 712.473 604.369 714.57 602.988 716.353C601.606 718.136 599.645 719.525 597.351 720.344C595.057 721.164 592.534 721.376 590.1 720.956C587.666 720.535 585.431 719.5 583.678 717.981C581.924 716.463 580.73 714.529 580.248 712.423C579.765 710.318 580.015 708.136 580.966 706.154C581.917 704.172 583.526 702.478 585.59 701.286C587.654 700.094 590.081 699.458 592.563 699.459C594.212 699.459 595.846 699.74 597.369 700.287C598.893 700.833 600.277 701.634 601.443 702.643C602.608 703.652 603.532 704.851 604.161 706.169C604.791 707.487 605.113 708.9 605.111 710.327Z" fill="url(#paint44_linear)"/>
<path style="mix-blend-mode:color-dodge" d="M513.171 722.443C525.101 722.443 534.771 714.08 534.771 703.764C534.771 693.448 525.101 685.086 513.171 685.086C501.242 685.086 491.571 693.448 491.571 703.764C491.571 714.08 501.242 722.443 513.171 722.443Z" fill="url(#paint45_radial)"/>
<path style="mix-blend-mode:color-dodge" d="M831.04 647.747C841.527 638.678 841.527 623.976 831.04 614.908C820.554 605.84 803.552 605.84 793.065 614.908C782.578 623.976 782.578 638.678 793.065 647.747C803.552 656.815 820.554 656.815 831.04 647.747Z" fill="url(#paint46_radial)"/>
<path style="mix-blend-mode:color-dodge" d="M496.827 406.191C496.827 408.787 495.937 411.324 494.269 413.483C492.601 415.641 490.231 417.323 487.457 418.317C484.684 419.31 481.632 419.57 478.688 419.064C475.744 418.557 473.039 417.307 470.917 415.472C468.794 413.636 467.348 411.298 466.763 408.752C466.177 406.206 466.478 403.567 467.627 401.168C468.775 398.77 470.721 396.72 473.217 395.278C475.713 393.836 478.647 393.066 481.649 393.066C485.674 393.066 489.535 394.449 492.381 396.91C495.228 399.372 496.827 402.71 496.827 406.191Z" fill="url(#paint47_radial)"/>
<path style="mix-blend-mode:color-dodge" d="M362.563 835.26C392.868 835.26 417.435 814.016 417.435 787.81C417.435 761.604 392.868 740.36 362.563 740.36C332.258 740.36 307.691 761.604 307.691 787.81C307.691 814.016 332.258 835.26 362.563 835.26Z" fill="url(#paint48_radial)"/>
<path style="mix-blend-mode:color-dodge" d="M508.502 894.826C538.807 894.826 563.374 873.582 563.374 847.376C563.374 821.17 538.807 799.926 508.502 799.926C478.197 799.926 453.63 821.17 453.63 847.376C453.63 873.582 478.197 894.826 508.502 894.826Z" fill="url(#paint49_radial)"/>
<path style="mix-blend-mode:color-dodge" d="M570.626 872.833C584.304 861.005 584.304 841.828 570.626 830C556.948 818.172 534.772 818.172 521.094 830C507.416 841.828 507.416 861.005 521.094 872.833C534.772 884.661 556.948 884.661 570.626 872.833Z" fill="url(#paint50_radial)"/>
<path style="mix-blend-mode:color-dodge" d="M779.609 842.546C793.287 830.718 793.287 811.541 779.609 799.713C765.931 787.885 743.755 787.885 730.077 799.713C716.398 811.541 716.398 830.718 730.077 842.546C743.755 854.374 765.931 854.374 779.609 842.546Z" fill="url(#paint51_radial)"/>
<path style="mix-blend-mode:color-dodge" d="M835.111 777.968C835.111 780.114 834.375 782.212 832.996 783.997C831.618 785.781 829.659 787.172 827.366 787.994C825.074 788.816 822.551 789.032 820.116 788.614C817.682 788.197 815.446 787.164 813.69 785.648C811.934 784.131 810.737 782.199 810.251 780.094C809.765 777.99 810.011 775.808 810.959 773.824C811.906 771.841 813.512 770.145 815.574 768.95C817.636 767.756 820.061 767.117 822.543 767.114C825.873 767.114 829.068 768.257 831.424 770.292C833.78 772.328 835.106 775.088 835.111 777.968Z" fill="url(#paint52_linear)"/>
<defs>
<radialGradient id="paint0_radial" cx="0" cy="0" r="1" gradientUnits="userSpaceOnUse" gradientTransform="translate(495.739 405.498) scale(525.168 428.649)">
<stop stop-color="#006AFF"/>
<stop offset="0.062" stop-color="#005ADA"/>
<stop offset="0.16" stop-color="#0045A8"/>
<stop offset="0.262" stop-color="#00337B"/>
<stop offset="0.367" stop-color="#002355"/>
<stop offset="0.476" stop-color="#001636"/>
<stop offset="0.589" stop-color="#000C1E"/>
<stop offset="0.708" stop-color="#00050D"/>
<stop offset="0.839" stop-color="#000103"/>
<stop offset="1"/>
</radialGradient>
<radialGradient id="paint1_radial" cx="0" cy="0" r="1" gradientUnits="userSpaceOnUse" gradientTransform="translate(590.986 715.343) scale(283.722 231.579)">
<stop stop-color="#006AFF"/>
<stop offset="0.062" stop-color="#005ADA"/>
<stop offset="0.16" stop-color="#0045A8"/>
<stop offset="0.262" stop-color="#00337B"/>
<stop offset="0.367" stop-color="#002355"/>
<stop offset="0.476" stop-color="#001636"/>
<stop offset="0.589" stop-color="#000C1E"/>
<stop offset="0.708" stop-color="#00050D"/>
<stop offset="0.839" stop-color="#000103"/>
<stop offset="1"/>
</radialGradient>
<linearGradient id="paint2_linear" x1="636.737" y1="505.597" x2="880.904" y2="24.7396" gradientUnits="userSpaceOnUse">
<stop/>
<stop offset="1" stop-color="#02B3C4"/>
</linearGradient>
<linearGradient id="paint3_linear" x1="687.841" y1="715.209" x2="804.9" y2="715.209" gradientUnits="userSpaceOnUse">
<stop stop-color="#047CFF"/>
<stop offset="1" stop-color="#7F5EFF"/>
</linearGradient>
<linearGradient id="paint4_linear" x1="367.436" y1="724.232" x2="487.984" y2="724.232" gradientUnits="userSpaceOnUse">
<stop stop-color="#047CFF"/>
<stop offset="1" stop-color="#7F5EFF"/>
</linearGradient>
<linearGradient id="paint5_linear" x1="367.436" y1="724.232" x2="487.984" y2="724.232" gradientUnits="userSpaceOnUse">
<stop stop-color="#047CFF"/>
<stop offset="1" stop-color="#7F5EFF"/>
</linearGradient>
<linearGradient id="paint6_linear" x1="738.576" y1="497.93" x2="909.662" y2="497.93" gradientUnits="userSpaceOnUse">
<stop/>
<stop offset="1" stop-color="#02B3C4"/>
</linearGradient>
<linearGradient id="paint7_linear" x1="636.737" y1="505.597" x2="880.904" y2="24.7396" gradientUnits="userSpaceOnUse">
<stop/>
<stop offset="1" stop-color="#02B3C4"/>
</linearGradient>
<linearGradient id="paint8_linear" x1="524.65" y1="375.043" x2="930.84" y2="375.043" gradientUnits="userSpaceOnUse">
<stop stop-color="#E6E6F4"/>
<stop offset="1" stop-color="#98AFE3"/>
</linearGradient>
<linearGradient id="paint9_linear" x1="523.112" y1="306.548" x2="933.055" y2="306.548" gradientUnits="userSpaceOnUse">
<stop stop-color="#FFE900"/>
<stop offset="1" stop-color="#FF13BD"/>
</linearGradient>
<radialGradient id="paint10_radial" cx="0" cy="0" r="1" gradientUnits="userSpaceOnUse" gradientTransform="translate(830.188 1788.27) scale(15.463 153.925)">
<stop stop-color="white"/>
<stop offset="0.193" stop-color="#BDBDBD"/>
<stop offset="0.411" stop-color="#7A7A7A"/>
<stop offset="0.609" stop-color="#464646"/>
<stop offset="0.779" stop-color="#1F1F1F"/>
<stop offset="0.915" stop-color="#080808"/>
<stop offset="1"/>
</radialGradient>
<radialGradient id="paint11_radial" cx="0" cy="0" r="1" gradientUnits="userSpaceOnUse" gradientTransform="translate(2495.59 895.975) rotate(-68.698) scale(21.5546 112.997)">
<stop stop-color="white"/>
<stop offset="0.193" stop-color="#BDBDBD"/>
<stop offset="0.411" stop-color="#7A7A7A"/>
<stop offset="0.609" stop-color="#464646"/>
<stop offset="0.779" stop-color="#1F1F1F"/>
<stop offset="0.915" stop-color="#080808"/>
<stop offset="1"/>
</radialGradient>
<radialGradient id="paint12_radial" cx="0" cy="0" r="1" gradientUnits="userSpaceOnUse" gradientTransform="translate(690.639 143.702) rotate(-0.0276394) scale(35.0267 30.2888)">
<stop stop-color="white"/>
<stop offset="0.193" stop-color="#BDBDBD"/>
<stop offset="0.411" stop-color="#7A7A7A"/>
<stop offset="0.609" stop-color="#464646"/>
<stop offset="0.779" stop-color="#1F1F1F"/>
<stop offset="0.915" stop-color="#080808"/>
<stop offset="1"/>
</radialGradient>
<radialGradient id="paint13_radial" cx="0" cy="0" r="1" gradientUnits="userSpaceOnUse" gradientTransform="translate(1494.7 2068.41) scale(15.463 153.925)">
<stop stop-color="white"/>
<stop offset="0.193" stop-color="#BDBDBD"/>
<stop offset="0.411" stop-color="#7A7A7A"/>
<stop offset="0.609" stop-color="#464646"/>
<stop offset="0.779" stop-color="#1F1F1F"/>
<stop offset="0.915" stop-color="#080808"/>
<stop offset="1"/>
</radialGradient>
<linearGradient id="paint14_linear" x1="553.767" y1="253.861" x2="605.796" y2="356.73" gradientUnits="userSpaceOnUse">
<stop stop-color="#FFE900"/>
<stop offset="1" stop-color="#FF00AF"/>
</linearGradient>
<linearGradient id="paint15_linear" x1="181.645" y1="725.331" x2="226.074" y2="534.434" gradientUnits="userSpaceOnUse">
<stop/>
<stop offset="1" stop-color="#02B3C4"/>
</linearGradient>
<linearGradient id="paint16_linear" x1="248.125" y1="754.332" x2="288.491" y2="563.801" gradientUnits="userSpaceOnUse">
<stop/>
<stop offset="1" stop-color="#02B3C4"/>
</linearGradient>
<linearGradient id="paint17_linear" x1="253.917" y1="756.846" x2="299.884" y2="565.876" gradientUnits="userSpaceOnUse">
<stop/>
<stop offset="1" stop-color="#02B3C4"/>
</linearGradient>
<linearGradient id="paint18_linear" x1="203.397" y1="734.823" x2="254.393" y2="543.677" gradientUnits="userSpaceOnUse">
<stop/>
<stop offset="1" stop-color="#02B3C4"/>
</linearGradient>
<linearGradient id="paint19_linear" x1="202.048" y1="734.224" x2="245.6" y2="543.401" gradientUnits="userSpaceOnUse">
<stop/>
<stop offset="1" stop-color="#02B3C4"/>
</linearGradient>
<linearGradient id="paint20_linear" x1="219.242" y1="741.673" x2="260.161" y2="551.131" gradientUnits="userSpaceOnUse">
<stop/>
<stop offset="1" stop-color="#02B3C4"/>
</linearGradient>
<linearGradient id="paint21_linear" x1="225.005" y1="744.239" x2="266.315" y2="553.617" gradientUnits="userSpaceOnUse">
<stop/>
<stop offset="1" stop-color="#02B3C4"/>
</linearGradient>
<linearGradient id="paint22_linear" x1="265.514" y1="761.893" x2="308.136" y2="571.148" gradientUnits="userSpaceOnUse">
<stop/>
<stop offset="1" stop-color="#02B3C4"/>
</linearGradient>
<linearGradient id="paint23_linear" x1="283.54" y1="769.787" x2="328.868" y2="578.816" gradientUnits="userSpaceOnUse">
<stop/>
<stop offset="1" stop-color="#02B3C4"/>
</linearGradient>
<linearGradient id="paint24_linear" x1="305.68" y1="779.457" x2="355.322" y2="588.319" gradientUnits="userSpaceOnUse">
<stop/>
<stop offset="1" stop-color="#02B3C4"/>
</linearGradient>
<linearGradient id="paint25_linear" x1="338.426" y1="793.709" x2="374.278" y2="603.784" gradientUnits="userSpaceOnUse">
<stop/>
<stop offset="1" stop-color="#02B3C4"/>
</linearGradient>
<linearGradient id="paint26_linear" x1="342.484" y1="795.444" x2="386.421" y2="604.604" gradientUnits="userSpaceOnUse">
<stop/>
<stop offset="1" stop-color="#02B3C4"/>
</linearGradient>
<linearGradient id="paint27_linear" x1="387.188" y1="814.876" x2="461.002" y2="626.196" gradientUnits="userSpaceOnUse">
<stop/>
<stop offset="1" stop-color="#02B3C4"/>
</linearGradient>
<linearGradient id="paint28_linear" x1="172.544" y1="721.568" x2="268.394" y2="540.31" gradientUnits="userSpaceOnUse">
<stop/>
<stop offset="1" stop-color="#02B3C4"/>
</linearGradient>
<linearGradient id="paint29_linear" x1="334.387" y1="791.919" x2="375.05" y2="601.394" gradientUnits="userSpaceOnUse">
<stop/>
<stop offset="1" stop-color="#02B3C4"/>
</linearGradient>
<linearGradient id="paint30_linear" x1="352.499" y1="799.808" x2="403.387" y2="608.69" gradientUnits="userSpaceOnUse">
<stop/>
<stop offset="1" stop-color="#02B3C4"/>
</linearGradient>
<linearGradient id="paint31_linear" x1="397.581" y1="819.448" x2="449.25" y2="628.324" gradientUnits="userSpaceOnUse">
<stop/>
<stop offset="1" stop-color="#02B3C4"/>
</linearGradient>
<linearGradient id="paint32_linear" x1="286.656" y1="771.202" x2="333.451" y2="580.128" gradientUnits="userSpaceOnUse">
<stop/>
<stop offset="1" stop-color="#02B3C4"/>
</linearGradient>
<linearGradient id="paint33_linear" x1="342.211" y1="795.364" x2="387.258" y2="604.421" gradientUnits="userSpaceOnUse">
<stop/>
<stop offset="1" stop-color="#02B3C4"/>
</linearGradient>
<linearGradient id="paint34_linear" x1="435.24" y1="663.791" x2="459.679" y2="554.356" gradientUnits="userSpaceOnUse">
<stop/>
<stop offset="1" stop-color="#02B3C4"/>
</linearGradient>
<linearGradient id="paint35_linear" x1="867.783" y1="377.573" x2="892.223" y2="268.138" gradientUnits="userSpaceOnUse">
<stop/>
<stop offset="1" stop-color="#02B3C4"/>
</linearGradient>
<linearGradient id="paint36_linear" x1="914.553" y1="402.784" x2="928.658" y2="339.626" gradientUnits="userSpaceOnUse">
<stop/>
<stop offset="1" stop-color="#02B3C4"/>
</linearGradient>
<linearGradient id="paint37_linear" x1="460.047" y1="310.158" x2="473.876" y2="248.238" gradientUnits="userSpaceOnUse">
<stop/>
<stop offset="1" stop-color="#02B3C4"/>
</linearGradient>
<linearGradient id="paint38_linear" x1="642.138" y1="537.091" x2="603.347" y2="879.443" gradientUnits="userSpaceOnUse">
<stop/>
<stop offset="1" stop-color="#02B3C4"/>
</linearGradient>
<linearGradient id="paint39_linear" x1="642.138" y1="602.21" x2="603.348" y2="944.554" gradientUnits="userSpaceOnUse">
<stop/>
<stop offset="1" stop-color="#02B3C4"/>
</linearGradient>
<linearGradient id="paint40_linear" x1="639.338" y1="470.602" x2="602.487" y2="795.836" gradientUnits="userSpaceOnUse">
<stop/>
<stop offset="1" stop-color="#02B3C4"/>
</linearGradient>
<linearGradient id="paint41_linear" x1="639.338" y1="470.602" x2="602.487" y2="795.836" gradientUnits="userSpaceOnUse">
<stop/>
<stop offset="1" stop-color="#02B3C4"/>
</linearGradient>
<linearGradient id="paint42_linear" x1="632.935" y1="395.435" x2="600.518" y2="681.529" gradientUnits="userSpaceOnUse">
<stop/>
<stop offset="1" stop-color="#02B3C4"/>
</linearGradient>
<linearGradient id="paint43_linear" x1="347.154" y1="531.96" x2="359.046" y2="558.278" gradientUnits="userSpaceOnUse">
<stop/>
<stop offset="1" stop-color="#02B3C4"/>
</linearGradient>
<linearGradient id="paint44_linear" x1="575.59" y1="682.223" x2="596.05" y2="727.502" gradientUnits="userSpaceOnUse">
<stop/>
<stop offset="1" stop-color="#02B3C4"/>
</linearGradient>
<radialGradient id="paint45_radial" cx="0" cy="0" r="1" gradientUnits="userSpaceOnUse" gradientTransform="translate(513.171 703.764) scale(21.6001 18.6785)">
<stop stop-color="white"/>
<stop offset="0.193" stop-color="#BDBDBD"/>
<stop offset="0.411" stop-color="#7A7A7A"/>
<stop offset="0.609" stop-color="#464646"/>
<stop offset="0.779" stop-color="#1F1F1F"/>
<stop offset="0.915" stop-color="#080808"/>
<stop offset="1"/>
</radialGradient>
<radialGradient id="paint46_radial" cx="0" cy="0" r="1" gradientUnits="userSpaceOnUse" gradientTransform="translate(801.598 653.155) scale(26.8527 23.2206)">
<stop stop-color="white"/>
<stop offset="0.193" stop-color="#BDBDBD"/>
<stop offset="0.411" stop-color="#7A7A7A"/>
<stop offset="0.609" stop-color="#464646"/>
<stop offset="0.779" stop-color="#1F1F1F"/>
<stop offset="0.915" stop-color="#080808"/>
<stop offset="1"/>
</radialGradient>
<radialGradient id="paint47_radial" cx="0" cy="0" r="1" gradientUnits="userSpaceOnUse" gradientTransform="translate(481.649 406.191) scale(15.1778 13.1248)">
<stop stop-color="white"/>
<stop offset="0.193" stop-color="#BDBDBD"/>
<stop offset="0.411" stop-color="#7A7A7A"/>
<stop offset="0.609" stop-color="#464646"/>
<stop offset="0.779" stop-color="#1F1F1F"/>
<stop offset="0.915" stop-color="#080808"/>
<stop offset="1"/>
</radialGradient>
<radialGradient id="paint48_radial" cx="0" cy="0" r="1" gradientUnits="userSpaceOnUse" gradientTransform="translate(362.563 787.81) scale(54.8719 47.4499)">
<stop stop-color="white"/>
<stop offset="0.193" stop-color="#BDBDBD"/>
<stop offset="0.411" stop-color="#7A7A7A"/>
<stop offset="0.609" stop-color="#464646"/>
<stop offset="0.779" stop-color="#1F1F1F"/>
<stop offset="0.915" stop-color="#080808"/>
<stop offset="1"/>
</radialGradient>
<radialGradient id="paint49_radial" cx="0" cy="0" r="1" gradientUnits="userSpaceOnUse" gradientTransform="translate(508.502 847.376) scale(54.8719 47.4499)">
<stop stop-color="white"/>
<stop offset="0.193" stop-color="#BDBDBD"/>
<stop offset="0.411" stop-color="#7A7A7A"/>
<stop offset="0.609" stop-color="#464646"/>
<stop offset="0.779" stop-color="#1F1F1F"/>
<stop offset="0.915" stop-color="#080808"/>
<stop offset="1"/>
</radialGradient>
<radialGradient id="paint50_radial" cx="0" cy="0" r="1" gradientUnits="userSpaceOnUse" gradientTransform="translate(532.02 880.311) scale(35.0249 30.2873)">
<stop stop-color="white"/>
<stop offset="0.193" stop-color="#BDBDBD"/>
<stop offset="0.411" stop-color="#7A7A7A"/>
<stop offset="0.609" stop-color="#464646"/>
<stop offset="0.779" stop-color="#1F1F1F"/>
<stop offset="0.915" stop-color="#080808"/>
<stop offset="1"/>
</radialGradient>
<radialGradient id="paint51_radial" cx="0" cy="0" r="1" gradientUnits="userSpaceOnUse" gradientTransform="translate(741.003 850.024) scale(35.0249 30.2873)">
<stop stop-color="white"/>
<stop offset="0.193" stop-color="#BDBDBD"/>
<stop offset="0.411" stop-color="#7A7A7A"/>
<stop offset="0.609" stop-color="#464646"/>
<stop offset="0.779" stop-color="#1F1F1F"/>
<stop offset="0.915" stop-color="#080808"/>
<stop offset="1"/>
</radialGradient>
<linearGradient id="paint52_linear" x1="805.59" y1="749.879" x2="826.049" y2="795.157" gradientUnits="userSpaceOnUse">
<stop/>
<stop offset="1" stop-color="#02B3C4"/>
</linearGradient>
</defs>
</svg>
